<svg height="22.441" viewBox="0 0 22.44 22.441" width="22.44" xmlns="http://www.w3.org/2000/svg"><g transform="translate(-340.417 -206.687)"><path d="m358.8 206.687h-14.293a4.082 4.082 0 0 0 -4.09 4.059v14.292a4.083 4.083 0 0 0 4.059 4.091h14.292a4.082 4.082 0 0 0 4.09-4.059v-14.293a4.081 4.081 0 0 0 -4.059-4.09" fill="#00b833"/><path d="m376 236.324c0-3.656-3.665-6.63-8.17-6.63s-8.17 2.974-8.17 6.63c0 3.278 2.907 6.023 6.833 6.542.266.057.628.175.72.4a1.679 1.679 0 0 1 .026.739s-.1.577-.117.7c-.036.206-.164.808.708.44a26.374 26.374 0 0 0 6.419-4.744 5.9 5.9 0 0 0 1.751-4.077" fill="#fff" transform="translate(-16.226 -19.404)"/><g fill="#00b833"><path d="m397.278 260.747h-.573a.159.159 0 0 0 -.159.159v3.56a.159.159 0 0 0 .159.159h.573a.159.159 0 0 0 .159-.159v-3.56a.159.159 0 0 0 -.159-.159" transform="translate(-47.337 -45.593)"/><path d="m409.023 260.747h-.573a.159.159 0 0 0 -.159.159v2.115l-1.631-2.2-.012-.016-.01-.01-.008-.007-.008-.006h-.008-.005-.009-.005-.009-.005-.009-.6a.159.159 0 0 0 -.159.159v3.56a.159.159 0 0 0 .159.159h.573a.159.159 0 0 0 .159-.159v-2.114l1.633 2.206a.153.153 0 0 0 .04.039l.01.006h.008.008.011a.159.159 0 0 0 .041.005h.573a.159.159 0 0 0 .159-.159v-3.56a.159.159 0 0 0 -.159-.159" transform="translate(-55.138 -45.593)"/><path d="m379.218 263.732h-1.558v-2.827a.159.159 0 0 0 -.159-.159h-.573a.159.159 0 0 0 -.159.159v3.56a.158.158 0 0 0 .044.11.158.158 0 0 0 .11.044h2.29a.159.159 0 0 0 .159-.159v-.573a.159.159 0 0 0 -.159-.159" transform="translate(-30.658 -45.592)"/><path d="m433.429 261.638a.159.159 0 0 0 .159-.159v-.573a.159.159 0 0 0 -.159-.159h-2.29a.158.158 0 0 0 -.11.045.158.158 0 0 0 -.044.11v3.559a.158.158 0 0 0 .044.11.158.158 0 0 0 .11.044h2.29a.159.159 0 0 0 .159-.159v-.573a.159.159 0 0 0 -.159-.159h-1.557v-.6h1.557a.159.159 0 0 0 .159-.159v-.565a.159.159 0 0 0 -.159-.159h-1.557v-.6z" transform="translate(-76.378 -45.593)"/></g></g></svg>